<svg width="32" height="32" viewBox="0 0 32 32" fill="none" xmlns="http://www.w3.org/2000/svg">
<g clip-path="url(#clip0_3_62)">
<mask id="mask0_3_62" style="mask-type:luminance" maskUnits="userSpaceOnUse" x="0" y="0" width="32" height="32">
<path d="M32 0H0V32H32V0Z" fill="white"/>
</mask>
<g mask="url(#mask0_3_62)">
<mask id="mask1_3_62" style="mask-type:luminance" maskUnits="userSpaceOnUse" x="0" y="0" width="32" height="20">
<path d="M31.6111 0H0.5V20H31.6111V0Z" fill="white"/>
</mask>
<g mask="url(#mask1_3_62)">
<path d="M16.0556 16.963C17.692 16.963 19.0185 15.6364 19.0185 14C19.0185 12.3636 17.692 11.037 16.0556 11.037C14.4192 11.037 13.0926 12.3636 13.0926 14C13.0926 15.6364 14.4192 16.963 16.0556 16.963Z" fill="#61DBFB"/>
<path d="M16.0556 20.6667C24.2375 20.6667 30.8704 17.6819 30.8704 14C30.8704 10.3181 24.2375 7.33333 16.0556 7.33333C7.87356 7.33333 1.24074 10.3181 1.24074 14C1.24074 17.6819 7.87356 20.6667 16.0556 20.6667Z" stroke="#61DBFB" stroke-width="1.48148"/>
<path d="M10.2821 17.3333C14.373 24.4191 20.2743 28.671 23.463 26.83C26.6516 24.9891 25.9201 17.7525 21.8291 10.6667C17.7381 3.58085 11.8368 -0.670956 8.64815 1.16999C5.45953 3.01094 6.19105 10.2475 10.2821 17.3333Z" stroke="#61DBFB" stroke-width="1.48148"/>
<path d="M10.282 10.6667C6.19105 17.7525 5.45953 24.9891 8.64814 26.83C11.8368 28.671 17.7381 24.4191 21.8291 17.3333C25.9201 10.2475 26.6516 3.01094 23.463 1.16999C20.2743 -0.670956 14.373 3.58085 10.282 10.6667Z" stroke="#61DBFB" stroke-width="1.48148"/>
</g>
<path d="M22.5 19.5H10C6.5955 19.5 4.06333 21.8232 4.06333 25.2277C4.06333 28.6322 6.82322 31.3921 10.2277 31.3921H22.2277C25.6322 31.3921 28.3921 28.6322 28.3921 25.2277C28.3921 21.8232 25.9045 19.5 22.5 19.5Z" stroke="#61DBFB" stroke-width="1.3"/>
<path d="M10.76 24.1887H9.7599C9.74164 24.0593 9.70434 23.9444 9.64802 23.8439C9.5917 23.742 9.5194 23.6552 9.43112 23.5837C9.34283 23.5121 9.24085 23.4573 9.12516 23.4193C9.011 23.3812 8.88694 23.3622 8.75299 23.3622C8.51097 23.3622 8.30015 23.4223 8.12053 23.5426C7.94092 23.6613 7.80164 23.8348 7.7027 24.0631C7.60376 24.2899 7.55429 24.5655 7.55429 24.8897C7.55429 25.223 7.60376 25.5031 7.7027 25.7299C7.80316 25.9567 7.9432 26.128 8.12281 26.2436C8.30243 26.3593 8.51021 26.4172 8.74614 26.4172C8.87857 26.4172 9.0011 26.3997 9.11374 26.3647C9.22791 26.3296 9.32913 26.2787 9.41742 26.2117C9.5057 26.1432 9.57877 26.0602 9.63661 25.9628C9.69597 25.8654 9.73707 25.7543 9.7599 25.6294L10.76 25.634C10.7341 25.8486 10.6694 26.0557 10.5659 26.2551C10.4639 26.4529 10.3261 26.6303 10.1526 26.7871C9.98062 26.9423 9.77512 27.0656 9.53615 27.1569C9.29869 27.2467 9.03003 27.2917 8.73016 27.2917C8.31309 27.2917 7.94016 27.1973 7.61137 27.0085C7.2841 26.8198 7.02533 26.5466 6.83506 26.1888C6.64632 25.8311 6.55194 25.3981 6.55194 24.8897C6.55194 24.3797 6.64784 23.9459 6.83963 23.5882C7.03142 23.2305 7.29171 22.958 7.6205 22.7708C7.94929 22.5821 8.31917 22.4877 8.73016 22.4877C9.0011 22.4877 9.25226 22.5258 9.48363 22.6019C9.71652 22.678 9.92277 22.7891 10.1024 22.9352C10.282 23.0798 10.4281 23.2572 10.5408 23.4672C10.6549 23.6773 10.728 23.9178 10.76 24.1887ZM12.7079 27.2939C12.4841 27.2939 12.2847 27.2551 12.1097 27.1775C11.9346 27.0983 11.7961 26.9819 11.6941 26.8282C11.5937 26.6729 11.5434 26.4796 11.5434 26.2482C11.5434 26.0534 11.5792 25.8897 11.6508 25.7573C11.7223 25.6249 11.8197 25.5183 11.943 25.4377C12.0663 25.357 12.2063 25.2961 12.3631 25.255C12.5214 25.2139 12.6873 25.185 12.8609 25.1682C13.0648 25.1469 13.2292 25.1271 13.3541 25.1089C13.4789 25.0891 13.5694 25.0602 13.6258 25.0221C13.6821 24.984 13.7102 24.9277 13.7102 24.8531V24.8394C13.7102 24.6948 13.6646 24.583 13.5732 24.5038C13.4834 24.4247 13.3556 24.3851 13.1897 24.3851C13.0146 24.3851 12.8753 24.4239 12.7718 24.5015C12.6683 24.5776 12.5998 24.6735 12.5663 24.7892L11.6667 24.7161C11.7124 24.503 11.8022 24.3189 11.9362 24.1636C12.0701 24.0068 12.2429 23.8866 12.4545 23.8028C12.6676 23.7176 12.9141 23.675 13.1942 23.675C13.3891 23.675 13.5755 23.6978 13.7536 23.7435C13.9332 23.7891 14.0923 23.8599 14.2308 23.9558C14.3709 24.0517 14.4812 24.175 14.5619 24.3257C14.6426 24.4749 14.6829 24.6537 14.6829 24.8623V27.2277H13.7605V26.7414H13.7331C13.6768 26.851 13.6014 26.9476 13.507 27.0314C13.4127 27.1136 13.2993 27.1782 13.1668 27.2254C13.0344 27.2711 12.8814 27.2939 12.7079 27.2939ZM12.9865 26.6227C13.1295 26.6227 13.2559 26.5945 13.3655 26.5382C13.4751 26.4803 13.5611 26.4027 13.6235 26.3053C13.6859 26.2079 13.7171 26.0975 13.7171 25.9742V25.602C13.6866 25.6218 13.6448 25.6401 13.5915 25.6568C13.5398 25.6721 13.4812 25.6865 13.4157 25.7002C13.3502 25.7124 13.2848 25.7238 13.2193 25.7345C13.1539 25.7436 13.0945 25.752 13.0412 25.7596C12.9271 25.7763 12.8274 25.803 12.7421 25.8395C12.6569 25.876 12.5907 25.9255 12.5435 25.9879C12.4963 26.0488 12.4727 26.1249 12.4727 26.2162C12.4727 26.3487 12.5207 26.4499 12.6166 26.5199C12.714 26.5884 12.8373 26.6227 12.9865 26.6227ZM15.6947 27.2277V23.7207H16.6377V24.3326H16.6742C16.7381 24.1149 16.8455 23.9505 16.9962 23.8394C17.1468 23.7267 17.3204 23.6704 17.5167 23.6704C17.5654 23.6704 17.618 23.6735 17.6743 23.6796C17.7306 23.6856 17.7801 23.694 17.8227 23.7047V24.5677C17.777 24.554 17.7139 24.5419 17.6332 24.5312C17.5525 24.5206 17.4787 24.5152 17.4117 24.5152C17.2686 24.5152 17.1408 24.5464 17.0281 24.6088C16.917 24.6697 16.8287 24.755 16.7633 24.8646C16.6993 24.9742 16.6674 25.1005 16.6674 25.2436V27.2277H15.6947ZM19.7118 27.2848C19.4454 27.2848 19.2042 27.2163 18.988 27.0793C18.7734 26.9408 18.6029 26.7376 18.4766 26.4697C18.3518 26.2003 18.2894 25.8699 18.2894 25.4788C18.2894 25.0769 18.3541 24.7428 18.4834 24.4764C18.6128 24.2085 18.7848 24.0083 18.9995 23.8759C19.2156 23.742 19.4523 23.675 19.7095 23.675C19.9059 23.675 20.0695 23.7085 20.2004 23.7755C20.3329 23.8409 20.4394 23.9231 20.5201 24.022C20.6023 24.1195 20.6647 24.2154 20.7073 24.3097H20.737V22.5516H21.7074V27.2277H20.7484V26.666H20.7073C20.6617 26.7635 20.597 26.8601 20.5132 26.956C20.431 27.0504 20.3237 27.1288 20.1913 27.1912C20.0604 27.2536 19.9006 27.2848 19.7118 27.2848ZM20.0201 26.5108C20.1768 26.5108 20.3093 26.4682 20.4173 26.3829C20.5269 26.2962 20.6107 26.1751 20.6685 26.0199C20.7279 25.8646 20.7576 25.6827 20.7576 25.4742C20.7576 25.2656 20.7286 25.0845 20.6708 24.9308C20.6129 24.777 20.5292 24.6583 20.4196 24.5746C20.31 24.4909 20.1768 24.449 20.0201 24.449C19.8602 24.449 19.7255 24.4924 19.6159 24.5792C19.5063 24.6659 19.4234 24.7862 19.3671 24.9399C19.3107 25.0936 19.2826 25.2717 19.2826 25.4742C19.2826 25.6782 19.3107 25.8585 19.3671 26.0153C19.4249 26.1706 19.5079 26.2924 19.6159 26.3806C19.7255 26.4674 19.8602 26.5108 20.0201 26.5108ZM25.6823 24.7207L24.7918 24.7755C24.7766 24.6994 24.7439 24.6309 24.6936 24.57C24.6434 24.5076 24.5772 24.4581 24.495 24.4216C24.4143 24.3836 24.3176 24.3645 24.205 24.3645C24.0543 24.3645 23.9272 24.3965 23.8237 24.4604C23.7202 24.5228 23.6684 24.6066 23.6684 24.7116C23.6684 24.7953 23.7019 24.8661 23.7689 24.9239C23.8359 24.9818 23.9508 25.0282 24.1137 25.0632L24.7484 25.1911C25.0894 25.2611 25.3436 25.3737 25.511 25.529C25.6785 25.6842 25.7622 25.8882 25.7622 26.1409C25.7622 26.3707 25.6944 26.5724 25.559 26.746C25.425 26.9195 25.2408 27.055 25.0064 27.1524C24.7735 27.2483 24.5049 27.2962 24.2004 27.2962C23.7362 27.2962 23.3663 27.1996 23.0908 27.0062C22.8168 26.8114 22.6562 26.5466 22.609 26.2117L23.5657 26.1614C23.5946 26.303 23.6646 26.4111 23.7758 26.4857C23.8869 26.5587 24.0292 26.5953 24.2027 26.5953C24.3732 26.5953 24.5102 26.5625 24.6137 26.4971C24.7187 26.4301 24.772 26.3441 24.7735 26.2391C24.772 26.1508 24.7347 26.0785 24.6617 26.0222C24.5886 25.9643 24.4759 25.9202 24.3237 25.8897L23.7164 25.7687C23.3739 25.7002 23.1189 25.5815 22.9515 25.4125C22.7856 25.2436 22.7026 25.0282 22.7026 24.7664C22.7026 24.5411 22.7635 24.347 22.8853 24.1842C23.0086 24.0213 23.1813 23.8957 23.4036 23.8074C23.6273 23.7191 23.8892 23.675 24.189 23.675C24.632 23.675 24.9805 23.7686 25.2347 23.9558C25.4905 24.1431 25.6396 24.398 25.6823 24.7207Z" fill="#61DBFB"/>
</g>
</g>
<defs>
<clipPath id="clip0_3_62">
<rect width="32" height="32" fill="white"/>
</clipPath>
</defs>
</svg>
